<svg xmlns="http://www.w3.org/2000/svg" xmlns:xlink="http://www.w3.org/1999/xlink" id="Layer_1" x="0" y="0" version="1.1" viewBox="0 0 1920 1080" style="enable-background:new 0 0 1920 1080" xml:space="preserve"><style type="text/css">.st0{fill:#ffcc38}.st1{fill:#ff63be}.st2{fill:#fff}.st3{fill:#4d5cc4}.st4{fill:#4b78ff}.st5{fill:#00aef2}.st6{fill:#00d7ff}.st7{fill:#ffd01f}</style><switch><g><g id="Group_286" transform="translate(671.418 36.919)"><g id="Group_285" transform="translate(0)"><path id="Path_1275" d="M616.9,576.55c2.74-4.4,8-6.96,13.04-5.74l22.52,5.05h51.73l22.52-5.05 c5.08-1.14,10.33,1.09,13.04,5.54c3.9,6.26,1.28,15.05-5.5,17.94l-40.2,12.88h-42.58l-29.07-12.78 c-6.27-2.84-9.05-10.22-6.22-16.5C616.4,577.43,616.63,576.98,616.9,576.55z" class="st0"/><path id="Path_1276" d="M665.12,604.42l-2.52,2.81l-29.3,0.91l0,0c0.79-3.58,4.17-5.97,7.81-5.53l3.53,0.43 c6.42,0,10.66-5.17,10.66-5.17L665.12,604.42z"/><path id="Path_1277" d="M709.42,601.59c0.85,0.19,1.71,0.29,2.58,0.3l3.53-0.43c3.64-0.44,7.02,1.96,7.81,5.54l-29.3,0.16 L709.42,601.59z"/><g id="Group_282" transform="translate(0 123.16)"><path id="Path_1278" d="M619.29,452.87l12.15-11.92l2.63,2.69l-12.15,11.92c-0.73,0.74-1.92,0.75-2.66,0.02 s-0.75-1.92-0.02-2.66C619.26,452.91,619.28,452.89,619.29,452.87L619.29,452.87z" class="st1"/><path id="Path_1279" d="M629.78,437l-1.53,0.63c-5.38,5.28-12.42,8.53-19.93,9.2l-0.57,0.05 c-1.66,0.15-2.89,1.62-2.74,3.28c0.02,0.17,0.05,0.35,0.09,0.52l0,0c0.34,1.24,1.42,2.14,2.71,2.23l0,0 c8.04,0.56,16-1.87,22.35-6.84l7.05-5.51L629.78,437z" class="st1"/></g><g id="Group_283" transform="translate(20.737 54.383)"><path id="Path_1280" d="M616.36,493.2l3.28-30.94c1.28-12.12,6.53-16.99,15.61-17.55c4.02-0.25,37.68-0.25,41.7,0 c6.27,0.39,10.54,2.75,13.7,7.82l0,0l18.58,27.96l20.64-24.19l8.41,7.18l-24.26,33.16c-3.19,4.37-9.32,5.32-13.69,2.13 c-0.84-0.62-1.59-1.37-2.19-2.22l-14.06-21.24l-3.71,46.16h-44.48l-4.23-44.46l-3.2,21.74c-0.26,1.83-1.21,3.49-2.64,4.65 l-14.36,13.38l-6.47-9.07L616.36,493.2z" class="st2"/><path id="Path_1281" d="M745.08,453.76c-0.1-1.45-0.64-2.84-1.55-3.99l3.33-8.65c0.37-1.13-0.24-2.34-1.36-2.71 c-1.05-0.35-2.19,0.16-2.64,1.17l-2.97,7.72c-0.06-0.02-0.13-0.03-0.2-0.04l-0.49-8.24c-0.07-1.18-1.09-2.08-2.27-2.01l0,0 c-1.18,0.07-2.08,1.09-2.01,2.27l0.48,8.07c-2.38,0.77-4.21,2.7-4.85,5.12l-0.67,3.83l8.41,7.18l4.56-3.92l0,0 C744.42,458.06,745.24,455.93,745.08,453.76z" class="st1"/></g><g id="Group_284" transform="translate(52.686)"><path id="Path_1282" d="M650.83,464.06c0.12-7.1-6.19-15.42-15.31-17.87c-8.8-2.36-18.1,1.33-22.9,9.07l-0.79,1.28 c-3.13,5.04-3.93,11.19-2.21,16.87l6.02,14.91l0.05,10.61l8.47,6.43l8.66-6.44l0.2-11.42l7.99-0.02 c5.6-0.08,10.09-4.65,10.09-10.24v-0.09v-4.66L650.83,464.06z" class="st1"/><path id="Path_1283" d="M642.44,476.52c0,2.49-2.02,4.51-4.51,4.51s-4.51-2.02-4.51-4.51" class="st2"/><path id="Path_1284" d="M614.46,485.4l-8.17-16.9l-0.17-0.34c-3.98-12.61,3.01-26.06,15.62-30.04c0.91-0.29,1.84-0.52,2.78-0.7 l0,0c12.48-2.36,24.63,5.43,27.69,17.76l-3.2,3.49c-9.59,8.5-26.11,6.42-26.11,6.42L614.46,485.4z"/><path id="Path_1285" d="M628.07,470.25c0,2.85-2.31,5.16-5.16,5.16s-5.16-2.31-5.16-5.16s2.31-5.16,5.16-5.16l0,0 C625.76,465.09,628.07,467.4,628.07,470.25z" class="st1"/></g></g><path id="Path_1286" d="M667.87,450.08c-2.76-8.54-15-17.39-25.63-5.3c-10.64,12.09,0.43,28.1-15.22,31.87 c0,0,16.58,16.49,31.3-4.87"/></g><g id="Group_288" transform="translate(484.994)"><path id="Path_1287" d="M670.56,507.22c0,18.11-14.67,27.5-32.78,27.5c-18.11,0-32.78-9.4-32.78-27.5 c0-18.1,32.78-52.05,32.78-52.05S670.56,489.12,670.56,507.22z" class="st0"/><path id="Path_1288" d="M621.18,440.58l16.6,32.77l16.6-32.77c0,0-7.52,3.99-16.6-1.5 C628.78,433.64,621.18,440.58,621.18,440.58z" class="st0"/><g id="Group_287" transform="translate(22.222 41.016)"><path id="Path_1289" d="M619.87,465c0.04-1.04-0.32-2.05-1-2.83c-0.98-0.92-2.15-1.62-3.42-2.04 c-2.58-0.83-4.99-2.14-7.07-3.87c-1.6-1.58-2.44-3.77-2.3-6.02c-0.08-2.2,0.75-4.34,2.3-5.91c1.69-1.61,3.89-2.57,6.21-2.72V437 h3.41v4.65c2.31,0.26,4.43,1.39,5.93,3.16c1.5,1.92,2.25,4.31,2.11,6.74l-0.06,0.11h-6.12c0.09-1.38-0.28-2.75-1.04-3.9 c-1.36-1.62-3.78-1.84-5.4-0.48c-0.06,0.05-0.13,0.11-0.19,0.17c-0.63,0.8-0.95,1.8-0.9,2.82c-0.04,0.99,0.3,1.97,0.95,2.71 c1.01,0.92,2.21,1.62,3.51,2.05c2.56,0.9,4.94,2.25,7.03,3.99c1.58,1.56,2.41,3.73,2.28,5.95c0.1,2.22-0.73,4.39-2.3,5.96 c-1.72,1.57-3.92,2.5-6.24,2.64v4.25h-3.41v-4.23c-2.47-0.18-4.8-1.18-6.63-2.84c-1.75-1.62-2.59-4.01-2.53-7.16l0.04-0.11h6.11 c0,1.92,0.44,3.29,1.32,4.12c0.91,0.84,2.12,1.29,3.36,1.24c1.1,0.07,2.18-0.3,2.99-1.04 C619.55,467.06,619.93,466.04,619.87,465z" class="st2"/></g></g><g id="Group_292" transform="translate(123.816 2.361)"><g id="Group_289" transform="translate(0 82.891)"><path id="Path_1290" d="M625.42,488.58l2.83,5.77h-17.81c0.55-2.16,2.64-3.55,4.84-3.21l2.14,0.33c1.15,0,2.09-0.93,2.09-2.09 c0-0.28-0.05-0.55-0.16-0.8L625.42,488.58L625.42,488.58z"/><path id="Path_1291" d="M651.79,488.58l-2.83,5.77h17.81c-0.55-2.16-2.64-3.55-4.84-3.21l-2.14,0.33 c-1.15,0-2.09-0.94-2.09-2.09c0-0.27,0.05-0.55,0.16-0.8L651.79,488.58L651.79,488.58z"/><path id="Path_1292" d="M667.16,440.92L652.6,437l-13.99,0.8l-13.99-0.8l-14.57,3.91c-3.69,1.1-5.83,4.96-4.8,8.67 l11.03,39.7h11.08l-7.59-37.39l18.83-5.14l18.83,5.2l-7.59,37.33h11.08l11.03-39.7C672.98,445.87,670.85,442.02,667.16,440.92z" class="st0"/></g><path id="Path_1293" d="M637.23,520.89v-48.18h9.65c1.64,0,4.03,0.12,6.47,0.27c5.52,0.35,9.98,4.63,10.55,10.13l2.7,20.9 c0.41,3.17-0.92,6.31-3.48,8.22l-4.38,3.28l-2.9-21.29v26.67H637.23z"/><path id="Path_1294" d="M639.98,520.89v-48.18h-9.65c-1.64,0-4.03,0.12-6.48,0.27c-5.52,0.35-9.98,4.63-10.55,10.13l-2.7,20.9 c-0.41,3.17,0.92,6.31,3.48,8.22l4.39,3.28l2.9-21.29v26.67H639.98z"/><g id="Group_290" transform="translate(11.601 59.298)"><path id="Path_1295" d="M610.42,464.16h33.21c1.65,0,3.04-1.25,3.21-2.89l2.15-20.71c0.18-1.77-1.1-3.35-2.87-3.54 c-0.11-0.01-0.22-0.02-0.33-0.02h-37.56c-1.78,0-3.22,1.44-3.22,3.22c0,0.11,0.01,0.23,0.02,0.34l2.2,20.71 C607.39,462.91,608.77,464.16,610.42,464.16z" class="st2"/><path id="Path_1296" d="M624.18,450.58c0,1.56,1.27,2.83,2.83,2.83s2.83-1.27,2.83-2.83c0-1.56-1.27-2.83-2.83-2.83 l0,0C625.44,447.75,624.18,449.02,624.18,450.58z" class="st1"/></g><g id="Group_291" transform="translate(17.584)"><path id="Path_1297" d="M616.74,456.42l0.17,8.75c0.03,3.04-2.41,5.52-5.45,5.55c-3.04,0.03-5.52-2.41-5.55-5.45 l0,0l0.07-8.86L616.74,456.42z" class="st2"/><path id="Path_1298" d="M605.51,451.9c-0.07-4.31,3.76-9.37,9.3-10.85c5.34-1.43,10.99,0.81,13.91,5.51l0.48,0.78 c1.9,3.06,2.39,6.8,1.35,10.25l-3.66,9.06l-0.24,6.07l-5.46,3.51l-5.09-3.51l0.23-6.57l-4.85-0.01 c-3.4-0.05-6.13-2.82-6.13-6.22v-0.05v-2.83L605.51,451.9z" class="st1"/><circle id="Ellipse_32" cx="624.32" cy="455.27" r="3.14" class="st1"/><path id="Path_1299" d="M610.61,459.48c0,1.51,1.23,2.74,2.74,2.74c1.51,0,2.74-1.23,2.74-2.74" class="st2"/><path id="Path_1300" d="M605.64,446.36c2.5-7.26,9.95-10.68,17.13-8.89l0,0c6.46,1.58,11.07,7.29,11.25,13.94 l0.27,13.75c0.06,3.04-2.35,5.55-5.39,5.61c-0.04,0-0.07,0-0.11,0l0,0c-3.04,0-5.5-2.46-5.5-5.5l0,0l0.12-14.94L605,449.17 C605.07,448.2,605.29,447.26,605.64,446.36z" class="st2"/></g></g><g id="Group_299" transform="translate(347.571 110.727)"><g id="Group_297" transform="translate(46.962)"><path id="Path_1301" d="M791.17,477.76l-1.52-7.15l20.9-7.18l0,0c0.23,2.75-1.67,5.23-4.39,5.72l-2.64,0.48 c-1.75,0.6-6.46,4.3-5.23,5.68L791.17,477.76z"/><path id="Path_1302" d="M736.7,501.4c8.83,4.37,33.47,13.86,33.47,13.86l17.75-41.16l12.68,0.43l-14.77,47.45 c-0.5,5.06-5.01,8.76-10.08,8.26c-0.21-0.02-0.41-0.05-0.61-0.08l-58.18-7.98l-1.76-21.36l-4.73-1.27 C725.36,496.7,727.87,497.03,736.7,501.4z" class="st3"/><path id="Path_1303" d="M780.56,480.73l-1.69-7.11l20.72-7.68l0,0c0.3,2.75-1.54,5.27-4.25,5.83l-2.62,0.54 c-1.73,0.64-6.35,4.45-5.09,5.81L780.56,480.73z"/><path id="Path_1304" d="M734.34,500.17c7.5,4.3,27.34,14.89,27.34,14.89l14.98-39.1l11.36,1.86l-14.08,45.61 c-0.66,6.02-6.03,10.4-12.05,9.83l-53.22-2.93l-3.86-26.67l5.74-5.03C716.3,497.29,723.43,493.91,734.34,500.17z" class="st4"/><g id="Group_296"><g id="Group_294" transform="translate(2.117 50.698)"><g id="Group_293" transform="translate(0 27.564)"><path id="Path_1305" d="M624.75,442.7l-1.82,0.37c-5.2-0.08-10.22-1.95-14.19-5.32l-0.3-0.25 c-0.88-0.74-2.2-0.63-2.95,0.25c-0.08,0.09-0.15,0.19-0.21,0.3l0,0c-0.45,0.77-0.36,1.74,0.22,2.41l0,0 c3.63,4.22,8.69,6.94,14.21,7.65l6.13,0.78L624.75,442.7z" class="st1"/><path id="Path_1306" d="M611.1,446.07l11.75,0.17l-0.04,2.6l-11.75-0.17c-0.72-0.01-1.29-0.6-1.28-1.32 S610.38,446.06,611.1,446.07L611.1,446.07z" class="st1"/></g><path id="Path_1307" d="M616.87,468.91v7.24h38.63L679.27,453l-23.75-16l-9.22,28.93L616.87,468.91z" class="st5"/></g><path id="Path_1308" d="M669.04,476.05c4.37-2.13,8.28,0.75,12.34,4.68c3.48,3.37,7.94,12.93,13.99,16.32 c9.17,5.15,11.22,2.07,15.95,1.6l-1.3,32.03c0,0-30.24,0.04-41.73-13.45c-11.49-13.49-13.43-18.98-11.25-33.65L669.04,476.05z" class="st6"/><path id="Path_1309" d="M640.02,455.49c-0.7-6.67,5.93-15.41,15.61-15.62c5.26-0.01,10.21,2.52,13.29,6.78 l0.37,0.49c2.73,3.64,4.05,11.65,3.12,16.1l-3.6,11.78l0.4,0.67l-5.73,7.9c-1.28,1.76-3.75,2.16-5.51,0.88 c-0.22-0.16-0.42-0.34-0.6-0.54l-0.32-0.35l-3.08-7.87l-4.57,0.38c-4.28,0.31-8.02-2.87-8.39-7.15l-0.01-0.07l-0.32-3.56 L640.02,455.49z" class="st1"/><path id="Path_1310" d="M637.13,442.87l7.48-0.76c3.99-3.96,9.63-5.77,15.18-4.89l0,0c9.62,1.52,16.18,10.54,14.67,20.16 c-0.11,0.7-0.26,1.39-0.45,2.07c-0.96,3.38-3.69,10.64-3.69,10.64l-8.84-11.77C637.95,456.61,637.13,442.87,637.13,442.87z"/><path id="Path_1311" d="M660.39,461.38c0.19,2.18,2.11,3.79,4.29,3.6s3.79-2.11,3.6-4.29 c-0.19-2.18-2.11-3.79-4.28-3.6C661.81,457.29,660.2,459.2,660.39,461.38z" class="st1"/><path id="Path_1312" d="M647.48,466.92c0.17,1.9,1.84,3.31,3.74,3.14c1.9-0.17,3.31-1.84,3.14-3.74l0,0" class="st2"/><g id="Group_295" transform="translate(0 82.496)"><path id="Path_1313" d="M611.1,446.07l11.75,0.17l-0.04,2.6l-11.75-0.17c-0.72-0.01-1.29-0.6-1.28-1.32 S610.38,446.06,611.1,446.07L611.1,446.07z" class="st1"/><path id="Path_1314" d="M624.75,442.69l-1.82,0.37c-5.2-0.08-10.22-1.95-14.19-5.31l-0.3-0.26 c-0.88-0.74-2.2-0.63-2.95,0.25c-0.08,0.09-0.15,0.19-0.21,0.3l0,0c-0.45,0.77-0.36,1.74,0.22,2.41l0,0 c3.63,4.22,8.69,6.94,14.21,7.65l6.13,0.78L624.75,442.69z" class="st1"/></g><path id="Path_1315" d="M622.19,525.28v8.83h33.77c3.91,0,7.44-2.3,9.04-5.86l12.99-29.13l-12.43-10.45 l-12.71,33.66L622.19,525.28z" class="st6"/></g></g><g id="Group_298" transform="translate(0 61.244)"><path id="Path_1316" d="M656.84,473.09h17.66c0-2.75-2.23-4.98-4.98-4.98c0,0,0,0,0,0h-12.51L656.84,473.09z" class="st2"/><path id="Path_1317" d="M615.05,473.09h43.52c2.25,0,4.07-1.82,4.07-4.07c0-0.29-0.03-0.57-0.09-0.85l-5.98-27.95 c-0.4-1.88-2.06-3.22-3.98-3.22h-43.52c-2.25,0-4.07,1.82-4.07,4.07c0,0.29,0.03,0.57,0.09,0.85l5.98,27.95 C611.47,471.75,613.13,473.09,615.05,473.09z"/><path id="Path_1318" d="M630.07,455.05c0,2.07,1.68,3.76,3.76,3.76c2.07,0,3.76-1.68,3.76-3.76 c0-2.07-1.68-3.76-3.76-3.76l0,0C631.75,451.29,630.07,452.97,630.07,455.05z" class="st2"/></g><rect id="Rectangle_1458" width="3.3" height="8.35" x="705.53" y="455.08"/></g><g id="Group_301" transform="translate(0 132.716)"><path id="Path_1319" d="M605,512.71v9.24c0,4.19,3.39,7.58,7.58,7.58c0,0,0,0,0,0h37.66c4.19,0,7.58-3.39,7.58-7.58c0,0,0,0,0,0 v-9.24H605z"/><path id="Path_1320" d="M657.82,450.97v-6.39c0-4.19-3.39-7.58-7.58-7.58l0,0h-37.66c-4.19,0-7.58,3.39-7.58,7.58v6.39H657.82z"/><g id="Group_300" transform="translate(18.863 69.265)"><path id="Path_1321" d="M605,444.54c0,4.17,3.38,7.55,7.54,7.55s7.55-3.38,7.55-7.54s-3.38-7.55-7.54-7.55 C608.38,437,605,440.38,605,444.54C605,444.54,605,444.54,605,444.54z" class="st7"/></g><rect id="Rectangle_1459" width="52.81" height="64.26" x="605" y="449.55" class="st1"/><path id="Path_1322" d="M635.64,490.86c0.07-1.13-0.27-2.24-0.97-3.13c-0.98-0.96-2.16-1.7-3.44-2.18 c-3.17-1.12-6.13-2.76-8.76-4.86c-1.83-1.64-2.74-4.05-2.74-7.23c-0.08-2.67,0.97-5.26,2.91-7.11c2.13-1.95,4.87-3.1,7.76-3.25 v-5.39h4.06v5.48c5.93,0.57,10.31,5.77,9.87,11.71l-0.05,0.13h-8.44c0.11-1.46-0.27-2.92-1.07-4.14 c-0.68-0.89-1.74-1.4-2.86-1.36c-1.02-0.08-2.02,0.34-2.68,1.12c-0.6,0.83-0.91,1.83-0.87,2.86c-0.05,1.03,0.28,2.05,0.93,2.86 c0.99,0.98,2.18,1.73,3.48,2.22c3.15,1.21,6.08,2.91,8.7,5.04c1.85,1.68,2.78,4.07,2.78,7.18c0.12,2.67-0.9,5.26-2.79,7.14 c-2.06,1.89-4.72,3.02-7.51,3.19v5.13h-4.05v-5.15c-3.04-0.21-5.93-1.43-8.21-3.45c-2.18-1.98-3.23-4.89-3.16-8.71l0.08-0.15 h8.39c0,2.11,0.46,3.63,1.38,4.55c0.95,0.94,2.24,1.44,3.57,1.39c1.04,0.07,2.06-0.32,2.78-1.07 C635.35,492.88,635.69,491.88,635.64,490.86z" class="st2"/></g></g></switch></svg>