<svg xmlns="http://www.w3.org/2000/svg" xmlns:xlink="http://www.w3.org/1999/xlink" id="Layer_1" x="0" y="0" version="1.1" viewBox="0 0 1920 1080" style="enable-background:new 0 0 4084 2048" xml:space="preserve"><style type="text/css">.st0{fill:#cc704f}.st1{fill:#fff}.st2{fill:#ffc600}.st3{fill:#ff8c63}.st4{fill:#322e55}.st5{fill:#433d71}.st6{fill:#29244e}.st7{fill:#f1f2eb}.st8{fill:#70505c}.st9{fill:#1f1b3b}.st10{fill:#ddac00}</style><switch><g><g id="Group_455" transform="translate(-2.879 -239.728)"><g id="Group_454" transform="translate(2.879 239.728)"><g id="Group_376" transform="translate(8.834 291.023)"><g id="Group_375"><path id="Path_1408" d="M938.11,307.75c2.07-5.75,1.84-17.75,1.84-17.75L920,302.22 c0.07,16.35,4.98,19.34,4.98,19.34c7.6,2.53,16.8,0,16.8,0C942.03,315.57,938.11,307.75,938.11,307.75z" class="st0"/></g></g><g id="Group_378" transform="translate(70.066 476.674)"><g id="Group_377"><path id="Path_1409" d="M947.16,295.06c0,0,0.67,11.85,1.61,15.36c0,0,4.38,9.54,4.45,12.8l-3.03,3.3l-12.94-0.93 l-14.48-1.09c-1.23-4.47-1.36-9.17-0.38-13.7c0,0,0.22-9.9-2.4-15.73C920,295.06,936.68,283.67,947.16,295.06z" class="st1"/></g></g><g id="Group_380" transform="translate(87.934 436.263)"><g id="Group_379"><path id="Path_1410" d="M944.36,307.56l11.03,32.65c0,0,0.39,2.85-3.16,4.87c0,0-23.11-15.82-32.21-31.91 c0,0-0.9-19.14,11.2-23.17L944.36,307.56z" class="st1"/></g></g><g id="Group_382" transform="translate(87.935 438.054)"><g id="Group_381"><path id="Path_1411" d="M923.32,308.02c0,0-0.5-10.94,4.47-18.01c-8.46,6.13-7.78,21.38-7.78,21.38 c9.1,16.09,32.21,31.91,32.21,31.91c1.46-0.72,2.55-2.01,3.01-3.57C952.59,337.86,931.83,323.06,923.32,308.02z" class="st2"/></g></g><g id="Group_384" transform="translate(175.855 264.776)"><g id="Group_383"><path id="Path_1412" d="M934.02,292.19v3.6c0,0,10.61,6.91,11.76,16.57c0,0,1.02,9.67-9.16,16.11 c0,0-10.18-8.82-15.47-21.1v-7.4c0-0.96-1.15-9.02-1.15-9.02S930.09,288.13,934.02,292.19z" class="st3"/></g></g><g id="Group_386" transform="translate(92.264 363.623)"><g id="Group_385"><path id="Path_1413" d="M977.77,315.32l-34.03,66.1c0,0-16.62-4.36-23.74-15.83l21.37-42.74l-1.19-15.84 L957.99,290L977.77,315.32z" class="st4"/></g></g><g id="Group_388" transform="translate(90.283 255.967)"><g id="Group_387"><path id="Path_1414" d="M969.59,303.15l10.16,119.83l-10.16,9.89l-20.7-4.35l-6.73-13.85l-9.9-77.94l-5.32-5.92 l-6.94-3.6v-31.67l19.39-5.54L969.59,303.15z" class="st5"/></g></g><g id="Group_390" transform="translate(96.702 291.202)"><g id="Group_389"><path id="Path_1415" d="M931.22,294.28h-10.7l-0.52,0.46l0.52,1.5l5.32,5.25l1.25,7.84l1.38-5.57l3.9-4.01 l4.3-9.75L931.22,294.28z" class="st4"/></g></g><g id="Group_392" transform="translate(42.896 257.774)"><g id="Group_391"><path id="Path_1416" d="M920,298.57l0.31,7.67l14.2,107.17l2.76,2.76l-2.76,4.33l2.76,4.73l1.97,1.97l-1.97,3.75 l8.28,87.74c9.47-7.1,30.63-3.85,30.63-3.85l-4.21-81.32l-2.37-4.73l4.74-7.5V293.54C936.87,283.29,920,298.57,920,298.57z" class="st5"/></g></g><g id="Group_394" transform="translate(42.78 257.701)"><g id="Group_393"><path id="Path_1417" d="M920,298.53l0.31,7.67l4.32,32.63c2.47,0.08,4.78,0.06,4.78,0.06l-0.35-0.73v-25.13 l8.18-9.3l29.52-0.42c0,0,6.15-1.6,5.92-2.71c-0.13-0.58-1.78-4.6-3.54-8.34C935.33,284.72,920,298.53,920,298.53z" class="st4"/></g></g><g id="Group_399" transform="translate(45.672 255.968)"><g id="Group_396" transform="translate(0 36.689)"><g id="Group_395"><path id="Path_1418" d="M945.19,482.33c0.75-0.39,1.52-0.75,2.31-1.05l-6.55-67.17l1.17-23.06l-5.26-4.38 l1.5-4.67l-1.79-4.08l1.79-2.34l-4.42-6.11l-4.38-48.77l-0.29-7.3l-2.63-9.34L920,290l11.73,88.52l2.76,2.76l-2.76,4.33 l2.76,4.73l1.97,1.97l-1.97,3.75l8.28,87.74c0.69-0.51,1.42-0.97,2.19-1.37C945.03,482.4,945.11,482.36,945.19,482.33z" class="st4"/></g></g><g id="Group_398" transform="translate(14.463)"><g id="Group_397"><path id="Path_1419" d="M949.52,305.15c22.48,6.96,43.44,11.42,51.16,9.1l-0.94-11.11L969.54,290l-15.84,4.53 c-14.41-3.46-25.54-3.06-33.7-1.42C935.13,298.55,949.52,305.15,949.52,305.15z" class="st4"/></g></g></g><g id="Group_401" transform="translate(69.828 81.8)"><g id="Group_400"><path id="Path_1420" d="M920,290.49c0,0,28.62-1.02,38.44-0.1l4.77,4.88l-2.87,9.27c0,0-15.4,26.17-15.54,26.58 s-13.35-11.31-13.35-11.31L920,290.49z" class="st6"/></g></g><g id="Group_403" transform="translate(8.83 67.281)"><g id="Group_402"><path id="Path_1421" d="M1102.6,472.49v-9.82c0,0-20.56-116.62-40.51-133.5l-44.8-19.02l-0.32-20.15h-33.36 c0,0,1.01,14.63,0,19.23c0,0-30.78,20.87-47.35,30.99c0,0-16.57,121.53-16.27,150.38c1.3,1.34,2.87,2.38,4.61,3.07 l-1.84,18.41l19.02,1.84l2.76-14.42c0,0,6.14-0.92,9.82-2.76l-0.31-7.67c0,0,20.87-8.9,54.02,4.29c0,0,29.76,8.6,49.4,0.92 l-6.43-102.8l25.16,82.86c2.19,1.51,4.72,2.45,7.36,2.76l1.79,14.74l18.28-2.51L1102.6,472.49z" class="st6"/></g></g><g id="Group_405" transform="translate(72.446 67.281)"><g id="Group_404"><path id="Path_1422" d="M953.36,290H920c0,0,1.01,14.63,0,19.23l21.09,34.56l12.59-33.64L953.36,290z" class="st3"/></g></g><g id="Group_407" transform="translate(72.446 67.281)"><g id="Group_406"><path id="Path_1423" d="M920.44,302.94l12.79,5.46c4.39,1.25,9.03,1.25,13.42,0c0,0,3.25-4.76,6.85-9.38 l-0.14-9.02H920C920,290,920.49,297.08,920.44,302.94z" class="st0"/></g></g><g id="Group_409" transform="translate(65.7 4.993)"><g id="Group_408"><path id="Path_1424" d="M920.28,317.99c0,0,1.26,29.86,8.83,37.86l12.2,10.52c0,0,9.25,2.1,16.4,0 c3.26-4.34,5.82-9.16,7.57-14.3c0,0,4.63-24.81,2.1-41.64c0,0-1.68-26.92-34.49-18.93 C932.9,291.48,917.79,296.78,920.28,317.99z" class="st3"/></g></g><g id="Group_411" transform="translate(79.726 98.443)"><g id="Group_410"><path id="Path_1425" d="M942.25,290.04c-7.29,1.97-14.97,1.96-22.25-0.04l13.81,22.63L942.25,290.04z" class="st7"/></g></g><g id="Group_413" transform="translate(61.041 82.075)"><g id="Group_412"><path id="Path_1426" d="M928.79,290.21c0,0-6.88,1.74-8.79,11.89l33.97,41.9l22.09-43.98c0,0-3.47-11.03-9.2-9.95 l-14.37,38.92L928.79,290.21z" class="st8"/></g></g><g id="Group_415" transform="translate(139.877 168.755)"><g id="Group_414"><path id="Path_1427" d="M956.31,371.55l-6.69-3.56l-6.06-21.13c-0.43-6.49,7.32-8.58,7.32-8.58 c-2.94-1.24-6.26-1.24-9.2,0c1.05-3.55,8.79-7.32,8.79-7.32c-4.11-1.18-8.52-0.73-12.31,1.25 c0.04-11.92,18.16-12.34,18.16-12.34c-10.25-5.23-21.12,1.05-21.12,1.05L920,290l25.16,82.86c2.19,1.51,4.72,2.46,7.36,2.76 l1.79,14.74l18.28-2.51l-1.05-16.84v-3.45C964.62,366.95,956.31,371.55,956.31,371.55z" class="st9"/></g></g><g id="Group_418" transform="translate(11.599 163.325)"><g id="Group_417"><g id="Group_416"><path id="Path_1428" d="M991.57,371.4c-12.42,1.38-29.66-5.52-29.66-5.52c-7.25-3.45-4.49-12.76-4.49-12.76 l3.45-0.34l1.38-13.8c7.72,7.98,22.89,19.48,28.69,23.79c-14.98-24.11-30.41-72.77-30.41-72.77 c-0.69,6.55-5.17,15.92-5.17,15.92v30.65l-2.23,26.19l-5.51,16.4l-1.38,16.65l-7.64,3.48c-5.37-1.87-11.11-2.43-16.75-1.65 L920,416.04l19.02,1.84l2.76-14.42c0,0,6.14-0.92,9.82-2.76l-0.31-7.67c4.07-1.46,8.32-2.35,12.63-2.64 c-2.44-4.58-4.28-9.45-5.48-14.5c15.86,10.35,34.15,4.83,34.15,4.83c11.38-2.42,32.25-1.73,32.25-1.73 C1011.58,368.99,991.57,371.4,991.57,371.4z" class="st9"/></g></g></g><g id="Group_420" transform="translate(64.022 168.755)"><g id="Group_419"><path id="Path_1429" d="M980.2,372.97c0,0,11.07,2.93,14,9.11c0,0-14.73,9.65-32.1,8.28 c0,0-31.66-10.89-42.1-5.68l0.02,0.02c11.3,0.43,22.43,2.86,32.88,7.17c0,0,29.76,8.6,49.4,0.92L995.86,290l-2.63,82.97 C993.23,372.97,985.74,371.34,980.2,372.97z" class="st9"/></g></g><g id="Group_422" transform="translate(160.412 277.44)"><g id="Group_421"><path id="Path_1430" d="M953.13,296.57v29.38l-33.11-12.53L920,290L953.13,296.57z" class="st2"/></g></g><g id="Group_424" transform="translate(176.971 277.43)"><g id="Group_423"><path id="Path_1431" d="M920.01,293.3c0,0-0.65,34.11,8.6,1.38c0,0-4.76-5.37-4.29-4.6S920.01,293.3,920.01,293.3 z" class="st3"/></g></g><g id="Group_426" transform="translate(72.463 501.748)"><g id="Group_425"><path id="Path_1432" d="M950.83,298.15c0,0,0.9,5.1-1.8,8.41c0,0-8.57,3.91-28.32,1.5 c-0.91-3.24-0.91-6.67,0-9.91C920.7,298.14,937.01,279.82,950.83,298.15z" class="st2"/></g></g><g id="Group_428" transform="translate(73.165 509.064)"><g id="Group_427"><path id="Path_1433" d="M920,300.74c19.76,2.4,28.32-1.5,28.32-1.5C938.65,277.61,920,300.74,920,300.74z" class="st9"/></g></g><g id="Group_430" transform="translate(0 308.395)"><g id="Group_429"><rect id="Rectangle_1462" width="43.81" height="7.36" x="920" y="290" class="st9"/></g></g><g id="Group_432" transform="translate(13.045 308.088)"><g id="Group_431"><path id="Path_1434" d="M944.21,292.44c0,0-0.69,9.72-3.1,12.05c0,0-11,5.76-20.33,0 c-2.86-1.76,3.11-12.05,3.11-12.05S942.82,286.94,944.21,292.44z" class="st3"/></g></g><g id="Group_434" transform="translate(14.217 309.746)"><g id="Group_433"><path id="Path_1435" d="M925.75,290c-1.83,0.44-3.04,0.79-3.04,0.79c-1.02,1.8-1.93,3.66-2.71,5.57 c0.89,1.15,1.52,2.09,1.52,2.09c1,2.35,2.3,4.57,3.87,6.59c0.91,0.17,1.82,0.28,2.74,0.32c0.05-0.13,0.1-0.27,0.13-0.41 c0.03-0.18,0.06-0.35,0.09-0.53C929.06,299.71,927.35,294.01,925.75,290z" class="st0"/></g></g><g id="Group_436" transform="translate(8.834 289.593)"><g id="Group_435"><path id="Path_1436" d="M939.95,291.43L925.18,290c-1.88,2.69-5.18,13.65-5.18,13.65l2.77,7.29 c2.28,1.24,5.61,6.24,5.61,6.24c5.68,12.05,6.74,6.5,6.74,6.5c0.03-0.18,0.06-0.35,0.09-0.53c1.25-8.24-4.92-19.49-4.92-19.49 C933.96,303.88,939.95,291.43,939.95,291.43z" class="st3"/></g></g><g id="Group_438" transform="translate(39.896 98.667)"><g id="Group_437"><path id="Path_1437" d="M927.05,370.57L927.05,370.57c0,0-5.39-23.14-5.17-27.06c0,0-0.04-37.69-1.88-44.05 c0,0,5.04-11.94,13.7-8.99c1.02,17.4,0.52,34.86-1.49,52.17C932.21,342.64,934.4,360.31,927.05,370.57z" class="st2"/></g></g><g id="Group_440" transform="translate(132.016 98.148)"><g id="Group_439"><path id="Path_1438" d="M935.64,296.92c-6.64-9.05-15.6-6.63-15.6-6.63c-0.45,6.11,2.91,29.8,2.91,29.8 c3.07,9.82,4.91,40.51,4.91,40.51l-0.5,15.67c1.69,0.63,3.58,0.36,5.04-0.7C938.15,352.48,935.64,296.92,935.64,296.92z" class="st2"/></g></g><g id="Group_442" transform="translate(138.359 150.021)"><g id="Group_441"><path id="Path_1439" d="M926.06,323.7c1.97-7.92,2.97-19.65,3.44-31.65c-3.29,0.1-6.55-0.6-9.5-2.05 c0.97,9.78,1.52,18.73,1.52,18.73l-0.5,15.67C922.71,325.03,924.6,324.77,926.06,323.7z" class="st10"/></g></g><g id="Group_449" transform="translate(41.716 144.284)"><g id="Group_444" transform="translate(5.231 34.958)"><g id="Group_443"><path id="Path_1440" d="M920,290c0.55,0.35,0.85,0.54,1.05,0.68C920.65,290.42,920,290,920,290z" class="st10"/></g></g><g id="Group_446" transform="translate(6.284 35.635)"><g id="Group_445"><path id="Path_1441" d="M920,290C920.3,290.19,920.42,290.26,920,290z" class="st10"/></g></g><g id="Group_448"><g id="Group_447"><path id="Path_1442" d="M920,290c0.05,4.69,0.06,7.9,0.06,7.9c-0.22,3.93,5.17,27.06,5.17,27.06 c7.35-10.26,5.16-27.93,5.16-27.93c0.28-2.27,0.51-4.53,0.72-6.76C927.46,291.29,923.59,291.19,920,290z" class="st10"/></g></g></g><g id="Group_451" transform="translate(60.04)"><g id="Group_450"><path id="Path_1443" d="M941.24,307.55c0,0,16.97,14.42,32.56,12.52c0,0,10.7-35.37-32.56-29.38 c0,0-6.78,1.9-8.83,5.44c0,0-18.65,4.36-10.22,35.65l5.11,5.66h5.1V326.6C932.4,326.6,941.7,319.12,941.24,307.55z" class="st6"/></g></g><g id="Group_453" transform="translate(59.796 38.762)"><g id="Group_452"><path id="Path_1444" d="M930.03,294.72c0,0-3.34-7.04-8.45-3.93c0,0-4.22,1.11,1.11,12c0,0,4.89,8.89,8.44,1.78 C931.14,304.57,932.02,297.54,930.03,294.72z" class="st3"/></g></g></g></g></g></switch></svg>